<!DOCTYPE svg PUBLIC "-//W3C//DTD SVG 20010904//EN" "http://www.w3.org/TR/2001/REC-SVG-20010904/DTD/svg10.dtd">
<svg version="1.0" xmlns="http://www.w3.org/2000/svg" width="700px" height="150px" viewBox="0 0 7000 1500" preserveAspectRatio="xMidYMid meet">
<g id="layer101" fill="#231916" stroke="none">
<path d="M2273 1141 c-158 -54 -248 -229 -203 -391 24 -87 114 -182 201 -210 28 -10 35 -17 32 -31 -4 -13 2 -22 21 -29 15 -5 29 -17 33 -26 3 -8 -11 -61 -32 -117 -21 -56 -41 -108 -43 -115 -3 -10 2 -13 19 -10 19 2 29 17 52 78 15 41 30 76 31 78 2 2 16 -33 31 -77 21 -64 31 -81 46 -81 10 0 19 4 19 9 0 30 -94 269 -111 284 -21 17 -20 17 40 17 119 0 241 70 295 170 38 71 47 172 21 251 -25 75 -118 167 -198 197 -73 28 -180 29 -254 3z m161 -2 c51 -24 75 -123 76 -310 0 -178 -24 -266 -80 -289 -46 -19 -87 2 -114 59 -19 42 -21 64 -21 231 0 205 11 267 53 300 28 23 50 25 86 9z"/>
<path d="M3510 1009 c0 -109 3 -150 12 -147 6 2 16 22 23 44 21 71 63 141 110 182 101 88 235 75 235 -23 0 -47 -21 -65 -116 -104 -120 -50 -207 -99 -229 -128 -20 -29 -32 -123 -21 -168 9 -37 75 -105 121 -126 63 -29 129 -25 211 15 39 19 76 31 81 27 5 -3 13 -18 17 -33 14 -61 26 -25 26 82 0 65 -4 110 -10 110 -5 0 -19 -22 -31 -50 -31 -72 -113 -146 -172 -155 -69 -10 -111 16 -115 72 -3 37 1 44 30 66 18 13 60 34 93 47 160 62 224 112 245 192 26 95 -17 179 -115 224 -83 39 -146 34 -250 -22 -69 -36 -90 -43 -101 -33 -8 6 -14 20 -14 29 0 25 -10 50 -21 50 -5 0 -9 -68 -9 -151z"/>
<path d="M4181 1134 c-67 -34 -100 -82 -108 -158 -10 -98 42 -184 133 -222 48 -20 141 -17 191 5 48 22 91 80 100 135 l6 36 -133 0 -132 0 7 48 c11 75 30 110 70 129 32 15 40 16 78 3 27 -10 50 -27 65 -50 23 -35 42 -50 42 -32 0 24 -65 95 -103 113 -63 28 -150 25 -216 -7z m159 -278 c0 -75 -22 -113 -57 -102 -23 7 -29 24 -39 109 l-7 57 52 0 51 0 0 -64z"/>
<path d="M5779 1133 c-131 -67 -158 -229 -55 -328 90 -87 249 -89 338 -4 45 43 51 84 15 117 -32 30 -78 28 -116 -4 -34 -28 -40 -63 -19 -109 10 -21 9 -29 -5 -43 -16 -15 -20 -15 -45 -2 -37 21 -51 68 -51 175 0 67 4 100 18 131 37 81 127 82 195 2 45 -53 56 -45 15 11 -60 84 -185 107 -290 54z"/>
<path d="M6221 1134 c-67 -34 -100 -82 -108 -158 -10 -98 42 -184 133 -222 48 -20 141 -17 191 5 48 22 91 80 100 135 l6 36 -133 0 -132 0 7 48 c11 75 30 110 70 129 32 15 40 16 78 3 27 -10 50 -27 65 -50 23 -35 42 -50 42 -32 0 24 -65 95 -103 113 -63 28 -150 25 -216 -7z m159 -278 c0 -75 -22 -113 -57 -102 -23 7 -29 24 -39 109 l-7 57 52 0 51 0 0 -64z"/>
<path d="M6570 1069 c0 -103 11 -112 41 -35 23 61 53 93 99 107 61 18 94 -12 74 -65 -3 -9 -42 -37 -86 -63 -95 -57 -123 -95 -115 -155 13 -98 136 -148 245 -98 42 19 42 19 55 0 21 -35 27 -22 27 61 0 46 -4 79 -9 77 -6 -2 -23 -28 -38 -58 -33 -63 -82 -97 -125 -87 -28 7 -42 34 -33 59 3 8 41 35 83 61 120 71 151 115 132 186 -25 95 -150 132 -260 76 l-50 -25 -12 25 c-20 45 -28 27 -28 -66z"/>
<path d="M4525 1143 c43 -11 45 -18 45 -195 l0 -169 -32 -14 c-31 -13 -26 -14 85 -15 110 0 117 1 117 20 0 18 2 17 25 -5 37 -37 106 -35 146 4 62 62 25 161 -60 161 -68 0 -96 -57 -66 -133 5 -13 3 -16 -8 -12 -29 12 -37 55 -37 196 l0 140 33 14 c29 13 20 14 -118 13 -82 0 -141 -3 -130 -5z"/>
<path d="M5127 1143 c-3 -4 -37 -90 -76 -190 -63 -159 -75 -183 -99 -192 -20 -7 9 -9 113 -10 93 0 132 3 118 9 -13 5 -23 15 -23 21 0 17 64 189 70 189 6 0 55 -131 65 -171 6 -23 2 -28 -22 -37 -21 -8 14 -11 145 -11 l172 -1 0 189 0 189 28 10 c20 8 -7 11 -113 11 -119 1 -136 -1 -115 -12 l25 -13 3 -171 c2 -166 2 -172 -18 -183 -40 -21 -64 9 -115 142 -97 251 -88 233 -122 236 -17 2 -33 -1 -36 -5z"/>
<path d="M5440 655 c-49 -53 -13 -135 60 -135 73 0 109 83 59 136 -31 33 -87 33 -119 -1z"/>
<path d="M2517 524 c-4 -4 -7 -76 -7 -159 l0 -152 66 -1 c80 -2 101 8 121 56 35 85 -18 178 -98 170 l-38 -3 -3 45 c-3 43 -22 63 -41 44z m127 -146 c19 -27 21 -88 4 -110 -13 -16 -34 -22 -70 -19 -16 1 -18 12 -18 76 l0 75 34 0 c25 0 39 -7 50 -22z"/>
<path d="M1360 326 c0 -109 1 -116 20 -116 11 0 20 5 20 10 0 7 8 7 22 -1 34 -18 81 -13 100 12 14 17 18 40 18 115 0 87 -1 94 -20 94 -18 0 -20 -7 -20 -72 0 -113 -13 -136 -65 -118 -17 6 -21 19 -25 96 -5 83 -7 89 -27 92 -23 3 -23 2 -23 -112z"/>
<path d="M1624 422 c-45 -36 -58 -106 -29 -162 19 -37 43 -50 94 -50 53 0 92 33 94 80 l2 35 -77 3 c-69 2 -78 5 -78 22 0 36 29 53 82 47 37 -5 48 -3 48 8 0 35 -99 48 -136 17z m116 -137 c0 -8 -11 -22 -24 -31 -22 -13 -29 -14 -53 -2 -15 7 -29 21 -31 31 -3 14 5 17 52 17 43 0 56 -4 56 -15z"/>
<path d="M1841 338 c-19 -57 -36 -109 -38 -116 -3 -7 4 -12 20 -12 22 0 27 7 42 65 10 36 21 65 24 65 4 0 18 -29 31 -65 13 -36 28 -64 33 -62 6 2 21 31 35 65 14 33 28 59 32 57 4 -2 15 -31 25 -65 15 -51 22 -60 42 -60 12 0 23 1 23 3 -1 17 -80 222 -87 224 -5 2 -22 -28 -37 -67 -16 -39 -31 -69 -34 -65 -3 3 -17 33 -31 67 -14 34 -31 63 -36 65 -6 2 -26 -43 -44 -99z"/>
<path d="M2170 420 c-16 -16 -20 -33 -20 -94 0 -56 -4 -75 -15 -80 -8 -3 -15 -12 -15 -21 0 -8 7 -15 15 -15 9 0 15 -9 15 -25 0 -14 2 -25 4 -25 2 0 11 -3 20 -6 13 -5 16 1 16 25 0 28 3 31 30 31 23 0 30 4 30 20 0 16 -7 20 -30 20 -30 0 -30 0 -30 56 0 71 12 94 50 94 23 0 30 4 30 20 0 17 -7 20 -40 20 -27 0 -47 -7 -60 -20z"/>
<path d="M2768 411 c-30 -27 -33 -35 -33 -85 0 -49 4 -59 31 -87 26 -26 39 -31 75 -31 36 1 49 6 72 32 16 19 27 42 27 60 l0 30 -80 0 c-71 0 -80 2 -80 18 0 35 35 55 84 49 34 -5 45 -3 50 9 7 18 -30 34 -79 34 -24 0 -45 -9 -67 -29z m122 -126 c0 -26 -44 -47 -74 -36 -14 6 -26 12 -26 15 0 2 -3 11 -6 20 -5 13 3 16 50 16 43 0 56 -3 56 -15z"/>
</g>
<g id="layer102" fill="#00733f" stroke="none">
<path d="M563 1195 c-182 -49 -331 -198 -378 -376 -19 -71 -19 -200 0 -274 46 -176 194 -324 370 -370 323 -84 645 170 645 508 0 335 -325 596 -637 512z m287 -136 c164 -76 262 -262 233 -436 -24 -139 -111 -255 -233 -311 -66 -31 -185 -41 -265 -23 -113 25 -230 130 -276 248 -32 81 -32 215 0 296 43 109 137 200 246 240 76 27 221 20 295 -14z"/>
<path d="M835 981 c-29 -13 -61 -52 -69 -84 -4 -15 -49 -72 -106 -131 -55 -57 -100 -111 -100 -119 0 -15 -4 -15 -41 -2 -65 23 -83 19 -128 -30 -43 -47 -49 -67 -29 -110 14 -32 18 -31 53 5 35 37 51 38 87 3 35 -33 36 -62 3 -93 -33 -31 -32 -46 6 -59 44 -15 44 -15 90 26 53 48 60 67 43 123 -11 35 -11 46 -1 49 6 2 62 53 123 113 68 65 120 108 132 108 32 0 72 55 72 101 0 69 -76 125 -135 100z m69 -67 c9 -8 16 -24 16 -34 0 -10 -7 -26 -16 -34 -8 -9 -24 -16 -34 -16 -22 0 -50 26 -50 46 0 48 51 71 84 38z"/>
</g>
<g id="layer103" fill="#727171" stroke="none">
<path d="M2273 1141 c-139 -48 -221 -173 -211 -325 11 -170 135 -284 318 -294 101 -5 172 17 248 77 97 77 137 219 97 342 -25 75 -118 167 -198 197 -73 28 -180 29 -254 3z m161 -2 c51 -24 75 -123 76 -310 0 -178 -24 -266 -80 -289 -46 -19 -87 2 -114 59 -19 42 -21 64 -21 231 0 205 11 267 53 300 28 23 50 25 86 9z"/>
<path d="M1510 1138 c25 -6 48 -15 52 -22 4 -6 8 -138 8 -293 l0 -283 -22 0 c-32 0 -87 66 -141 168 -27 51 -53 92 -58 92 -5 0 -9 -58 -9 -135 l0 -135 335 0 335 0 0 135 c0 74 -3 135 -7 135 -5 0 -28 -39 -53 -87 -50 -98 -115 -173 -148 -173 l-22 0 0 278 c0 157 4 284 10 292 5 8 29 20 52 27 36 9 9 11 -167 11 -163 0 -200 -2 -165 -10z"/>
<path d="M2838 1137 c23 -7 47 -19 52 -27 6 -8 10 -127 10 -270 0 -143 -4 -262 -10 -270 -5 -8 -29 -20 -52 -27 -36 -9 1 -11 212 -12 319 0 348 8 392 107 35 78 5 182 -64 219 -25 13 -63 18 -150 21 l-118 4 0 113 c0 78 4 116 13 123 6 5 32 14 57 20 35 8 -4 10 -170 10 -180 0 -208 -2 -172 -11z m377 -298 c18 -17 20 -33 20 -134 0 -132 -10 -152 -84 -162 l-41 -6 0 168 0 167 43 -7 c23 -4 51 -16 62 -26z"/>
</g>


</svg>